<?xml version="1.0" standalone="no"?><!DOCTYPE svg PUBLIC "-//W3C//DTD SVG 1.1//EN" "http://www.w3.org/Graphics/SVG/1.1/DTD/svg11.dtd"><svg t="1745841144276" class="icon" viewBox="0 0 1024 1024" version="1.1" xmlns="http://www.w3.org/2000/svg" p-id="12576" xmlns:xlink="http://www.w3.org/1999/xlink" width="200" height="200"><path d="M0 0h1024v1024H0z" fill="#F7F8FF" p-id="12577"></path><path d="M942.795806 392.321243c0 80.925825-65.714951 146.541359-146.740194 146.541359h-568.270292c-1.690097 0-3.280777 0-4.970873-0.099418-78.738641-2.584854-141.570485-67.206214-141.570486-146.441941 0-58.358058 34.100194-108.862136 83.51068-132.32466-0.79534-6.859806-1.093592-13.719612-1.093592-20.678835 0-111.347573 90.271068-201.718058 201.61864-201.718059 77.446214 0 144.55301 43.644272 178.354952 107.569709 23.164272-24.754951 56.170874-39.965825 92.657087-39.965825 70.188738 0 127.254369 56.866796 127.254369 127.254369 0 5.766214-0.298252 11.532427-1.19301 17.099806 10.737087-2.485437 22.07068-3.976699 33.702525-3.976699 81.025243 0 146.740194 65.714951 146.740194 146.740194z" fill="#FFFFFF" p-id="12578"></path><path d="M721.69134 319.647068v219.215534h-493.90602c-1.690097 0-3.280777 0-4.970873-0.099418v-219.016699c0-0.695922 0-1.391845 0.198835-2.087767 6.263301-49.012816 239.198447-49.509903 249.239611-49.509902s242.976311 0.497087 249.239612 49.509902v0.099418c0.198835 0.596505 0.198835 1.292427 0.198835 1.888932z" fill="#E9F1FE" p-id="12579"></path><path d="M272.493359 319.756427h478.983457v521.862214H272.493359z" fill="#FFFFFF" p-id="12580"></path><path d="M751.496699 319.696777V503.35068c0 22.995262-107.331107 41.645981-239.576233 41.64598-132.235184 0-239.397282-18.650718-239.397282-41.64598v-21.951379c0.178951 0.16901 0.178951 0.516971 0.178952 0.874874 0.16901 0.695922 0.516971 1.391845 1.043883 2.087767a7.714796 7.714796 0 0 1-1.222835-4.175534V319.686835c0 23.005204 107.162097 41.81499 239.397282 41.81499 132.245126 0 239.576233-18.809786 239.576233-41.81499z" fill="#B5D8FE" p-id="12581"></path><path d="M751.496699 319.756427c0 23.015146-107.241631 41.695689-239.496699 41.69569-132.274951 0-239.506641-18.680544-239.506641-41.69569s107.231689-41.695689 239.516583-41.695689c132.245126 0 239.486757 18.680544 239.486757 41.695689zM751.496699 540.771417v183.46501c0 22.995262-107.331107 41.81499-239.576233 41.81499-132.235184 0-239.397282-18.819728-239.397282-41.81499V540.771417c0 22.995262 107.162097 41.636039 239.397282 41.636039 132.245126 0 239.576233-18.640777 239.576233-41.636039z" fill="#B5D8FE" p-id="12582"></path><path d="M751.476816 761.696932v183.007689c0 2.157359-0.934524 4.304777-2.813515 6.362719-10.289709 11.602019-48.654913 21.802252-102.827495 28.164971-6.362718 0.755573-12.904388 1.401786-19.734369 2.057941-33.970951 3.280777-72.803417 5.050408-114.151146 5.050408-41.35767 0-80.190136-1.769631-114.151145-5.050408a909.630136 909.630136 0 0 1-19.644894-2.057941h-0.099417c-54.172583-6.462136-92.527845-16.562951-102.827495-28.254447-1.779573-2.057942-2.714097-4.115883-2.714097-6.263301v-183.027573c0 22.935612 107.132272 41.834874 239.437048 41.834874 132.205359 0 239.526524-18.899262 239.526525-41.824932z" fill="#B5D8FE" p-id="12583"></path><path d="M682.769398 441.701903m-32.748116 0a32.748117 32.748117 0 1 0 65.496233 0 32.748117 32.748117 0 1 0-65.496233 0Z" fill="#FFFFFF" p-id="12584"></path><path d="M579.842485 446.374524m-32.748116 0a32.748117 32.748117 0 1 0 65.496233 0 32.748117 32.748117 0 1 0-65.496233 0Z" fill="#FFFFFF" p-id="12585"></path><path d="M682.769398 663.442641m-32.748116 0a32.748117 32.748117 0 1 0 65.496233 0 32.748117 32.748117 0 1 0-65.496233 0Z" fill="#FFFFFF" p-id="12586"></path><path d="M579.842485 668.125204m-32.748116 0a32.748117 32.748117 0 1 0 65.496233 0 32.748117 32.748117 0 1 0-65.496233 0Z" fill="#FFFFFF" p-id="12587"></path><path d="M682.769398 885.19332m-32.748116 0a32.748117 32.748117 0 1 0 65.496233 0 32.748117 32.748117 0 1 0-65.496233 0Z" fill="#FFFFFF" p-id="12588"></path><path d="M579.842485 889.875883m-32.748116 0a32.748117 32.748117 0 1 0 65.496233 0 32.748117 32.748117 0 1 0-65.496233 0Z" fill="#FFFFFF" p-id="12589"></path><path d="M51.170175 976.398913H35.124194a9.941748 9.941748 0 1 0 0 19.883495h16.045981a9.941748 9.941748 0 1 0 0-19.883495zM988.875806 976.398913h-25.649709a9.941748 9.941748 0 1 0 0 19.883495h25.649709a9.941748 9.941748 0 1 0 0-19.883495zM796.075495 235.659184c-7.496078 0-15.071689 0.556738-22.647301 1.670214 0.05965-1.59068 0.089476-3.201243 0.089476-4.841631 0-75.686524-61.579184-137.255767-137.255767-137.255767-33.344621 0-65.605592 12.22835-90.350602 33.931184A211.093126 211.093126 0 0 0 365.279689 27.717592c-116.67635 0-211.600155 94.913864-211.600155 211.590214 0 5.020583 0.178951 9.921864 0.526913 14.823145-50.613437 26.981903-82.944 80.468505-82.944 138.170408 0 86.294369 70.188738 156.483107 156.463223 156.483107h34.825942v265.186175h0.019883v130.73398c0 4.523495 1.729864 8.828272 5.199534 12.824855 6.829981 7.774447 21.394641 13.958214 39.100893 18.869437H92.696854a9.941748 9.941748 0 1 0 0 19.883495H924.184854a9.941748 9.941748 0 1 0 0-19.883495H717.376621c17.477592-4.861515 31.853359-10.975689 38.663457-18.660661 4.443961-4.901282 5.368544-9.792621 5.368543-13.023689V813.970641L761.438447 548.784466h34.637048c86.383845 0 156.652117-70.188738 156.652117-156.483107 0-86.373903-70.268272-156.642175-156.652117-156.642175zM741.535068 761.140194c-6.839922 11.780971-88.382136 32.439922-229.584777 32.439923-142.226641 0-223.888155-20.967146-229.495301-31.883185l-0.019883-0.099417v-14.763496c57.493126 28.73165 221.104466 29.159146 229.485359 29.159146 8.390835 0 172.051883-0.427495 229.614602-29.139262v14.286291z m0-37.510213c-6.442252 11.751146-87.944699 32.479689-229.614602 32.479689-142.286291 0-223.888155-20.93732-229.455534-31.873243v-160.857476c57.612427 28.572583 221.074641 28.980194 229.455534 28.980195 8.390835 0 171.952466-0.39767 229.614602-28.970253v160.241088z m0-183.385476c-6.859806 11.711379-88.332427 32.231146-229.614602 32.231145-142.296233 0-223.888155-20.837903-229.455534-31.714174 0-0.049709-0.029825-0.099417-0.029825-0.139185v-14.753553c57.493126 28.632233 221.104466 29.059728 229.485359 29.059728 8.390835 0 172.051883-0.427495 229.614602-29.039845v14.355884z m0-37.500272c-6.482019 11.691495-87.974524 32.300738-229.614602 32.300738-142.296233 0-223.898097-20.827961-229.455534-31.704233 0-10.747029 0.546796-112.093204 0-160.956893 48.287068 24.068971 175.571262 29.06967 229.455534 29.06967 53.556194 0 181.059107-4.941049 229.654369-29.079612l-0.039767 160.360388zM512 351.510369c-139.254058 0-220.38866-19.953087-229.226874-31.753942 8.838214-11.810796 89.972816-31.763883 229.226874-31.763883 138.86633 0 219.891573 19.843728 229.087689 31.664466-19.247223 26.305864-196.15068 31.853359-229.087689 31.853359zM741.236816 944.466019c-6.183767 6.989049-35.193786 17.686369-96.564195 24.894136-76.034485 8.917748-172.42967 9.126524-245.938951 2.038059-17.020272-1.690097-19.446058-2.048-19.823845-2.077826-61.27099-7.327068-90.121942-17.994563-96.454835-24.605825V784.393942c57.612427 28.672 221.114408 29.06967 229.495301 29.06967s171.892816-0.39767 229.54501-29.059729L741.236816 944.466019z m54.838679-415.565048h-34.656932v-25.421049l0.019884-0.139184V319.696777c0-0.069592-0.039767-0.119301-0.039767-0.178952-0.765515-50.822214-239.21833-51.398835-249.388738-51.398835-10.18035 0-249.45833 0.576621-249.45833 51.637437 0 0.05965 0.029825 0.129243 0.029825 0.198835v40.005592h-0.029825V528.900971h-34.825942c-75.308738 0-136.579728-61.27099-136.579728-136.599612 0-52.412893 30.55099-100.839146 77.824-123.367145a9.921864 9.921864 0 0 0 5.617087-10.01134 185.423534 185.423534 0 0 1-1.024-19.615068c0-105.710602 85.996117-191.706718 191.71666-191.706719a191.31899 191.31899 0 0 1 169.536622 102.260816 9.921864 9.921864 0 0 0 16.04598 2.147417A117.203262 117.203262 0 0 1 636.271845 115.115495c64.720777 0 117.372272 52.651495 117.372272 117.372272 0 5.617087-0.377786 10.816621-1.13336 15.489243a9.931806 9.931806 0 0 0 12.079224 11.254058 138.955806 138.955806 0 0 1 31.495456-3.688388c75.418097 0 136.768621 61.340583 136.768621 136.758679 0 75.328621-61.340583 136.599612-136.768621 136.599612z" fill="#077AF1" p-id="12590"></path><path d="M682.769398 399.002097c-23.542058 0-42.689864 19.147806-42.689864 42.689864s19.147806 42.689864 42.689864 42.689864 42.689864-19.147806 42.689864-42.689864-19.147806-42.689864-42.689864-42.689864z m0 65.496233c-12.576311 0-22.806369-10.24-22.806369-22.806369s10.24-22.806369 22.806369-22.806369 22.806369 10.24 22.806369 22.806369-10.24 22.806369-22.806369 22.806369zM579.842485 403.68466c-23.542058 0-42.689864 19.147806-42.689864 42.689864s19.147806 42.689864 42.689864 42.689864 42.689864-19.147806 42.689865-42.689864-19.147806-42.689864-42.689865-42.689864z m0 65.496233c-12.566369 0-22.806369-10.24-22.806368-22.806369s10.24-22.806369 22.806368-22.806369 22.806369 10.24 22.806369 22.806369-10.24 22.806369-22.806369 22.806369zM682.769398 706.132505c23.542058 0 42.689864-19.147806 42.689864-42.689864s-19.147806-42.689864-42.689864-42.689864-42.689864 19.147806-42.689864 42.689864 19.147806 42.689864 42.689864 42.689864z m0-65.496233c12.566369 0 22.806369 10.24 22.806369 22.806369s-10.24 22.806369-22.806369 22.806369-22.806369-10.24-22.806369-22.806369 10.24-22.806369 22.806369-22.806369zM579.842485 710.815068c23.542058 0 42.689864-19.147806 42.689865-42.689864s-19.147806-42.689864-42.689865-42.689864-42.689864 19.137864-42.689864 42.689864 19.147806 42.689864 42.689864 42.689864z m0-65.496233c12.576311 0 22.806369 10.230058 22.806369 22.806369s-10.24 22.806369-22.806369 22.806369-22.806369-10.24-22.806368-22.806369 10.24-22.806369 22.806368-22.806369zM682.769398 927.893126c23.542058 0 42.689864-19.147806 42.689864-42.689864s-19.147806-42.689864-42.689864-42.689864-42.689864 19.137864-42.689864 42.689864 19.147806 42.689864 42.689864 42.689864z m0-65.496233c12.566369 0 22.806369 10.230058 22.806369 22.806369s-10.24 22.806369-22.806369 22.806369-22.806369-10.24-22.806369-22.806369 10.24-22.806369 22.806369-22.806369zM579.842485 932.555806c23.542058 0 42.689864-19.147806 42.689865-42.689864s-19.147806-42.689864-42.689865-42.689864-42.689864 19.147806-42.689864 42.689864 19.147806 42.689864 42.689864 42.689864z m0-65.496233c12.576311 0 22.806369 10.24 22.806369 22.806369s-10.24 22.806369-22.806369 22.806369-22.806369-10.24-22.806368-22.806369 10.24-22.806369 22.806368-22.806369zM858.350602 838.08932a9.941748 9.941748 0 0 0 9.941748-9.941747V677.400854l33.106019 33.115962a9.941748 9.941748 0 1 0 14.067573-14.057632l-50.076583-50.076582a9.981515 9.981515 0 0 0-14.077514 0l-50.076583 50.076582a9.941748 9.941748 0 1 0 14.057631 14.057632l33.10602-33.10602v150.716893a9.941748 9.941748 0 0 0 9.941747 9.941748zM165.639456 643.46967a9.941748 9.941748 0 0 0-9.941747 9.941747v150.726835l-33.10602-33.106019a9.941748 9.941748 0 1 0-14.067572 14.047689l50.076582 50.076583a9.941748 9.941748 0 0 0 14.087456 0l50.066641-50.076583a9.941748 9.941748 0 1 0-14.057631-14.057631l-33.106019 33.115961v-150.716893a9.941748 9.941748 0 0 0-9.941748-9.941747z" fill="#077AF1" p-id="12591"></path></svg>